{"title":"Anal Angels - Demida","uid":7850248,"size":317839204,"categoryP":"porn","categoryS":"movie_clips","magnet":"?xt=urn:btih:00198246ec3dde27634ea5529d04eebacaecd024&amp;dn=Anal+Angels+-+Demida&amp;tr=udp%3A%2F%2Ftracker.openbittorrent.com%3A80&amp;tr=udp%3A%2F%2Fopen.demonii.com%3A1337&amp;tr=udp%3A%2F%2Ftracker.coppersurfer.tk%3A6969&amp;tr=udp%3A%2F%2Fexodus.desync.com%3A6969","seeders":1,"leechers":0,"uploader":"athklym","files":-1,"time":1353590392,"description":" &lt;a href=&quot;http://bayimg.com/MagDAAaEd&quot; rel=&quot;nofollow&quot; target=&quot;_NEW&quot;&gt;http://bayimg.com/MagDAAaEd&lt;/a&gt;\n\nAnal_Angels_Demida.mkv\nFormat                                   : Matroska\nFormat version                           : Version 2\nFile size                                : 303 MiB\nDuration                                 : 25mn 35s\nOverall bit rate                         : 1 656 Kbps\nWriting application                      : Lavf52.37.0\nWriting library                          : Lavf52.37.0\n\nVideo\nID                                       : 1\nFormat                                   : AVC\nFormat/Info                              : Advanced Video Codec\nFormat profile                           : &lt;a class=&quot;__cf_email__&quot; href=&quot;/cdn-cgi/l/email-protection&quot; data-cfemail=&quot;d29abbb5ba929ee1fce2&quot;&gt;[email&amp;#160;protected]&lt;/a&gt;&lt;script cf-hash='f9e31' type=&quot;text/javascript&quot;&gt;\n/* &lt;![CDATA[ */!function(){try{var t=&quot;currentScript&quot;in document?document.currentScript:function(){for(var t=document.getElementsByTagName(&quot;script&quot;),e=t.length;e--;)if(t[e].getAttribute(&quot;cf-hash&quot;))return t[e]}();if(t&amp;&amp;t.previousSibling){var e,r,n,i,c=t.previousSibling,a=c.getAttribute(&quot;data-cfemail&quot;);if(a){for(e=&quot;&quot;,r=parseInt(a.substr(0,2),16),n=2;a.length-n;n+=2)i=parseInt(a.substr(n,2),16)^r,e+=String.fromCharCode(i);e=document.createTextNode(e),c.parentNode.replaceChild(e,c)}}}catch(u){}}();/* ]]&gt; */&lt;/script&gt;\nFormat settings, CABAC                   : Yes\nFormat settings, ReFrames                : 3 frames\nCodec ID                                 : V_MPEG4/ISO/AVC\nDuration                                 : 25mn 35s\nBit rate                                 : 1 575 Kbps\nWidth                                    : 720 pixels\nHeight                                   : 406 pixels\nDisplay aspect ratio                     : 16:9\nFrame rate mode                          : Constant\nFrame rate                               : 25.000 fps\nColor space                              : YUV\nChroma subsampling                       : 4:2:0\nBit depth                                : 8 bits\nScan type                                : Progressive\nBits/(Pixel*Frame)                       : 0.216\nStream size                              : 288 MiB (95%)\nWriting library                          : x264 core 115a\nDefault                                  : Yes\nForced                                   : No\n\nAudio\nID                                       : 2\nFormat                                   : MPEG Audio\nFormat version                           : Version 2\nFormat profile                           : Layer 3\nMode                                     : Joint stereo\nMode extension                           : MS Stereo\nCodec ID                                 : A_MPEG/L3\nCodec ID/Hint                            : MP3\nDuration                                 : 25mn 35s\nBit rate mode                            : Constant\nBit rate                                 : 48.0 Kbps\nChannel(s)                               : 2 channels\nSampling rate                            : 16.0 KHz\nCompression mode                         : Lossy\nStream size                              : 8.78 MiB (3%)\nDefault                                  : Yes\nForced                                   : No\n\n","torrent":{"xt":"urn:btih:00198246ec3dde27634ea5529d04eebacaecd024","amp;dn":"Anal+Angels+-+Demida","amp;tr":["udp%3A%2F%2Ftracker.openbittorrent.com%3A80","udp%3A%2F%2Fopen.demonii.com%3A1337","udp%3A%2F%2Ftracker.coppersurfer.tk%3A6969","udp%3A%2F%2Fexodus.desync.com%3A6969"],"infoHash":"00198246ec3dde27634ea5529d04eebacaecd024","infoHashBuffer":{"type":"Buffer","data":[0,25,130,70,236,61,222,39,99,78,165,82,157,4,238,186,202,236,208,36]},"announce":[],"urlList":[]}}